<?xml version="1.0" encoding="UTF-8"?>
<svg version="1.1" xmlns="http://www.w3.org/2000/svg" width="960" height="342">
<path d="M0 0 C27.72 0 55.44 0 84 0 C84 6.6 84 13.2 84 20 C62.88 20 41.76 20 20 20 C20 28.25 20 36.5 20 45 C23.96 45.33 27.92 45.66 32 46 C50.41103226 49.6393901 68.35591477 57.87950269 82 71 C82 71.66 82 72.32 82 73 C83.485 73.495 83.485 73.495 85 74 C101.14128017 88.91536016 108.68678409 110.88636918 112 132 C116.285216 123.61678618 119.05639695 116.6601963 119.20532227 107.08642578 C119.22526749 105.94569611 119.24521271 104.80496643 119.26576233 103.62966919 C119.28247482 102.41383148 119.29918732 101.19799377 119.31640625 99.9453125 C119.3475779 98.06028519 119.3475779 98.06028519 119.37937927 96.13717651 C119.43354612 92.81314299 119.48383793 89.48909743 119.53222656 86.16497803 C119.58266496 82.76618283 119.63823383 79.36747184 119.69335938 75.96875 C119.8002826 69.31256529 119.90161989 62.65631624 120 56 C126.93 56 133.86 56 141 56 C141.09996302 63.64563319 141.17197998 71.29087381 141.21972656 78.93701172 C141.23966163 81.53017822 141.26681961 84.12330084 141.30175781 86.71630859 C141.64551875 112.91291407 139.78194418 135.0144911 121 155 C108.41845852 167.71421152 91.26749392 176.03159075 73.21435547 176.37988281 C72.05637451 176.37746582 72.05637451 176.37746582 70.875 176.375 C69.64547607 176.37258301 69.64547607 176.37258301 68.39111328 176.37011719 C50.19582346 176.00995426 31.79127823 167.94632403 19 155 C1.00263982 135.68491403 -0.60526888 114.22446876 -0.390625 89.16015625 C-0.38315148 86.58085064 -0.37746381 84.0015393 -0.37347412 81.42222595 C-0.35984925 75.36643922 -0.32844171 69.3109929 -0.28807616 63.25533336 C-0.23863849 55.67093038 -0.21700953 48.08647749 -0.1953125 40.50195312 C-0.15657002 27.00107306 -0.07640781 13.50083589 0 0 Z M20 68 C19.94998919 73.31614869 19.91399602 78.63215582 19.89013672 83.94848633 C19.88017406 85.75124502 19.86659904 87.55398796 19.84912109 89.35668945 C19.6612998 109.24917378 20.90215102 126.15428399 35.1484375 141.28125 C46.95630565 152.74519966 59.47899166 155.4833432 75.28125 155.30078125 C80.72412094 155.09019398 85.27299814 153.72197536 90 151 C90.95568314 127.82468379 84.95827081 108.69040295 69.75 90.875 C58.98350734 79.2325893 44.61695124 70.91745243 29 68 C27.4265 67.9559386 25.85187474 67.94322459 24.27783203 67.95849609 C23.47459503 67.96448822 22.67135803 67.97048035 21.84378052 67.97665405 C21.23533295 67.98435822 20.62688538 67.99206238 20 68 Z " fill="#003B70" transform="translate(83,83)"/>
<path d="M0 0 C8.24585345 7.98156327 13.04862295 16.28438012 13.765625 27.921875 C13.92546849 39.69701197 11.83982023 49.09758911 4.5625 58.625 C3.9025 58.625 3.2425 58.625 2.5625 58.625 C2.0675 60.11 2.0675 60.11 1.5625 61.625 C-1.8294411 64.71354744 -5.39707843 66.79475475 -9.5 68.8125 C-10.52222656 69.32167969 -11.54445313 69.83085937 -12.59765625 70.35546875 C-21.53260271 74.34977081 -34.0246761 73.94489674 -43.1953125 70.671875 C-53.55807569 65.8335117 -63.01429257 57.30621944 -67.25 46.5 C-70.73773008 35.91371339 -70.27788064 25.06227142 -66.4375 14.625 C-60.97401267 4.13717089 -60.97401267 4.13717089 -56.4375 2.625 C-56.1075 1.635 -55.7775 0.645 -55.4375 -0.375 C-39.3466312 -13.89555497 -15.90075278 -13.78378865 0 0 Z M-47.4375 16.625 C-50.88963099 22.59515594 -52.52159456 28.76331914 -51.4375 35.625 C-50.65154761 38.15806947 -49.65430044 40.23819914 -48.4375 42.625 C-48.045625 43.429375 -47.65375 44.23375 -47.25 45.0625 C-46.981875 45.578125 -46.71375 46.09375 -46.4375 46.625 C-45.7775 46.625 -45.1175 46.625 -44.4375 46.625 C-44.1075 47.615 -43.7775 48.605 -43.4375 49.625 C-37.00815653 53.78516342 -31.49400153 56.28637901 -23.7421875 55.1640625 C-16.78377684 53.53650204 -11.20545594 49.88914835 -7.28125 43.84375 C-4.59594998 39.01020996 -3.03089117 34.19459541 -3.4375 28.625 C-4.98760137 23.31655231 -7.57810512 18.61304137 -11.4375 14.625 C-12.0975 14.625 -12.7575 14.625 -13.4375 14.625 C-13.4375 13.965 -13.4375 13.305 -13.4375 12.625 C-14.68485567 11.9740741 -15.93551832 11.32948331 -17.1875 10.6875 C-17.88359375 10.32785156 -18.5796875 9.96820313 -19.296875 9.59765625 C-29.56879884 4.93030399 -40.27199859 8.18247853 -47.4375 16.625 Z " fill="#003B70" transform="translate(328.4375,117.375)"/>
<path d="M0 0 C21.93410165 1.55000985 43.84554808 10.6728193 59.8046875 26.01953125 C59.8046875 26.67953125 59.8046875 27.33953125 59.8046875 28.01953125 C60.7946875 28.34953125 61.7846875 28.67953125 62.8046875 29.01953125 C78.27628324 43.31606909 87.70741334 66.1810033 89.6171875 86.95703125 C89.42233176 91.43199411 87.97143031 93.59109466 84.9296875 96.83203125 C80.39401991 100.81509377 75.41345758 104.69098049 69.8046875 107.01953125 C68.3196875 106.52453125 68.3196875 106.52453125 66.8046875 106.01953125 C66.85109375 104.89417969 66.8975 103.76882812 66.9453125 102.609375 C67.60473005 79.55249917 59.84578388 60.27018368 44.18359375 43.3359375 C40.39760432 39.64941577 36.29626226 36.7809677 31.8046875 34.01953125 C30.95132813 33.48457031 30.09796875 32.94960937 29.21875 32.3984375 C19.45503741 26.65760356 9.02477239 23.9703859 -2.1953125 23.01953125 C-3.81731765 21.3975261 -3.32522 19.59930094 -3.328125 17.36328125 C-3.32941406 16.42355469 -3.33070312 15.48382813 -3.33203125 14.515625 C-3.32816406 13.52691406 -3.32429688 12.53820312 -3.3203125 11.51953125 C-3.32417969 10.53082031 -3.32804687 9.54210937 -3.33203125 8.5234375 C-3.33074219 7.58371094 -3.32945313 6.64398438 -3.328125 5.67578125 C-3.32699707 4.80759766 -3.32586914 3.93941406 -3.32470703 3.04492188 C-3.14220927 0.18831544 -2.8708819 0.02554165 0 0 Z " fill="#0076C9" transform="translate(105.1953125,127.98046875)"/>
<path d="M0 0 C5.94 0 11.88 0 18 0 C18 8.25 18 16.5 18 25 C21.3 24.34 24.6 23.68 28 23 C35.67358039 23.07731567 41.57334896 25.61344736 47 31 C51.92498771 37.56665028 52.28289183 44.30803503 52.1953125 52.2109375 C52.1924826 53.17907379 52.18965271 54.14721008 52.18673706 55.14468384 C52.17558696 58.22158428 52.1504918 61.29818828 52.125 64.375 C52.11496352 66.4674437 52.10583884 68.55989198 52.09765625 70.65234375 C52.07566453 75.76834251 52.04117025 80.88412108 52 86 C46.06 86 40.12 86 34 86 C33.95101562 83.32648438 33.90203125 80.65296875 33.8515625 77.8984375 C33.79748693 75.29698292 33.74020533 72.6956172 33.68261719 70.09423828 C33.64443478 68.29222285 33.60956349 66.49013399 33.578125 64.68798828 C33.53224037 62.09120519 33.47428565 59.4949229 33.4140625 56.8984375 C33.40251129 56.0982016 33.39096008 55.2979657 33.37905884 54.47348022 C33.26164565 49.98053628 32.83466446 46.1836218 31 42 C27.88196601 40.25464401 27.88196601 40.25464401 19 41 C18.67 55.85 18.34 70.7 18 86 C12.06 86 6.12 86 0 86 C0 57.62 0 29.24 0 0 Z " fill="#FF6939" transform="translate(826,103)"/>
<path d="M0 0 C1.93359375 1.3203125 1.93359375 1.3203125 4.80859375 3.7578125 C4.80859375 4.4178125 4.80859375 5.0778125 4.80859375 5.7578125 C5.46859375 5.7578125 6.12859375 5.7578125 6.80859375 5.7578125 C7.46348748 7.12852031 8.10704338 8.50464694 8.74609375 9.8828125 C9.28556641 11.03136719 9.28556641 11.03136719 9.8359375 12.203125 C11.75910318 17.25433125 11.94584862 22.20880542 11.93359375 27.5703125 C11.93746094 29.28154297 11.93746094 29.28154297 11.94140625 31.02734375 C11.80859375 33.7578125 11.80859375 33.7578125 10.80859375 34.7578125 C8.1443269 34.91784738 5.50298947 35.01724139 2.8359375 35.07421875 C1.6394735 35.1053904 1.6394735 35.1053904 0.4188385 35.13719177 C-2.13865236 35.20277408 -4.69624905 35.26161217 -7.25390625 35.3203125 C-8.98373507 35.36348949 -10.71355304 35.40710351 -12.44335938 35.45117188 C-16.69259885 35.55846422 -20.94194515 35.65970676 -25.19140625 35.7578125 C-23.88475412 38.73145343 -23.33131654 39.66811603 -20.4921875 41.48828125 C-12.19754622 44.6785279 -2.56659582 43.06820962 5.80859375 40.7578125 C7.19389196 46.21242419 8.04828805 51.12499651 7.80859375 56.7578125 C-3.73811181 60.56143315 -18.74924147 62.66636272 -30.08203125 57.078125 C-38.37639653 51.88646673 -42.47539722 46.3358471 -44.94140625 36.8828125 C-45.93459941 24.46789805 -45.27562269 14.67171303 -37.19140625 4.7578125 C-27.59946053 -6.00674272 -12.20780536 -6.91993245 0 0 Z M-23.19140625 13.7578125 C-25.48130257 17.52150097 -25.48130257 17.52150097 -26.19140625 21.7578125 C-19.59140625 21.7578125 -12.99140625 21.7578125 -6.19140625 21.7578125 C-7.40791854 15.07371942 -7.40791854 15.07371942 -10.44140625 12.8203125 C-14.89618364 11.09914851 -19.25759751 10.7735438 -23.19140625 13.7578125 Z " fill="#FF6938" transform="translate(750.19140625,130.2421875)"/>
<path d="M0 0 C6.08255862 4.71708628 8.65032247 10.54870943 10 18 C10.2447916 21.18220476 10.23481239 24.34119996 10.1953125 27.53125 C10.1924826 28.40777222 10.18965271 29.28429443 10.18673706 30.18737793 C10.17563492 32.95839699 10.15054954 35.72908035 10.125 38.5 C10.11495729 40.3906203 10.10583371 42.28124571 10.09765625 44.171875 C10.07572835 48.78137729 10.04126845 53.39063194 10 58 C-4.04680693 61.59949428 -21.98925473 64.28869561 -35.3125 57.25 C-39.7225839 53.55783674 -42.61841616 49.37429136 -43.2734375 43.58203125 C-43.49042675 37.66490129 -43.08283413 33.50932132 -39.546875 28.65234375 C-34.39952673 23.15403991 -27.28191728 21.21246154 -19.9296875 20.84765625 C-11.72396441 20.75867853 -11.72396441 20.75867853 -8 22 C-9.68173075 17.81741859 -9.68173075 17.81741859 -12.85546875 14.81640625 C-15.11398524 13.95660671 -16.6582247 13.7630663 -19.0625 13.8125 C-19.83722656 13.82796875 -20.61195313 13.8434375 -21.41015625 13.859375 C-25.22518949 14.06652613 -29.01631428 14.45183536 -32.8125 14.87890625 C-33.534375 14.91886719 -34.25625 14.95882812 -35 15 C-36.94090826 13.05909174 -36.39919435 9.52706098 -36.5625 6.9375 C-36.64628906 5.64714844 -36.73007812 4.35679687 -36.81640625 3.02734375 C-36.87699219 2.02832031 -36.93757813 1.02929688 -37 0 C-24.12017132 -2.88508162 -12.80813013 -4.75568145 0 0 Z M-24 37 C-25.1490712 38.9254644 -25.1490712 38.9254644 -25 41 C-24.24849977 44.27773504 -24.24849977 44.27773504 -21 46 C-17.79620876 46.24246783 -17.79620876 46.24246783 -14.3125 46.125 C-13.13300781 46.10695313 -11.95351563 46.08890625 -10.73828125 46.0703125 C-9.83464844 46.04710937 -8.93101562 46.02390625 -8 46 C-8 42.37 -8 38.74 -8 35 C-14.44690078 33.90898602 -18.32130199 33.56911995 -24 37 Z " fill="#003B71" transform="translate(500,129)"/>
<path d="M0 0 C7.07916864 5.12891467 11.50857484 12.84046377 13.1875 21.375 C14.13708774 30.47521584 12.71177621 38.13110165 7.375 45.625 C1.3027017 53.10773433 -5.55906279 57.66503408 -15.21875 58.76171875 C-25.01881471 59.07063383 -32.47019303 57.35433081 -40.125 51.125 C-47.25567754 44.38326851 -50.79598801 36.85665091 -51.125 27 C-50.90786043 17.07943609 -47.03311497 8.69376881 -40.125 1.625 C-28.21547671 -7.53141271 -12.61857286 -7.66051641 0 0 Z M-29.8125 15.375 C-33.04569121 19.18850759 -34.60361259 22.36170209 -34.8125 27.375 C-33.75891093 32.87707625 -30.79218925 36.59429521 -26.8125 40.375 C-23.08767116 42.7911052 -19.46222654 42.70373174 -15.16796875 42.12109375 C-10.85929116 40.75632191 -7.71437118 37.76545153 -4.8125 34.375 C-3.27770239 29.77060717 -2.85503382 24.96462356 -4.56640625 20.3359375 C-6.46623893 16.83428512 -8.47424361 14.48560051 -11.8125 12.375 C-18.52080217 10.46975091 -24.24798412 11.09559172 -29.8125 15.375 Z " fill="#003B71" transform="translate(640.8125,131.625)"/>
<path d="M0 0 C0.46921875 0.56074219 0.9384375 1.12148437 1.421875 1.69921875 C2.14117187 2.52873047 2.14117187 2.52873047 2.875 3.375 C6.6325498 9.20372936 6.43950191 15.13772998 6.3671875 21.81640625 C6.3643576 22.80673859 6.36152771 23.79707092 6.35861206 24.81741333 C6.3474597 27.96564051 6.32236407 31.11357824 6.296875 34.26171875 C6.28683882 36.40233963 6.27771408 38.54296499 6.26953125 40.68359375 C6.24753653 45.91807947 6.21304063 51.15235011 6.171875 56.38671875 C0.231875 56.38671875 -5.708125 56.38671875 -11.828125 56.38671875 C-11.87710938 53.62941406 -11.92609375 50.87210938 -11.9765625 48.03125 C-12.03060959 45.35370571 -12.08790243 42.67624912 -12.14550781 39.9987793 C-12.18373366 38.14142419 -12.21859763 36.28399667 -12.25 34.42651367 C-12.29578961 31.75282963 -12.35376079 29.07964133 -12.4140625 26.40625 C-12.42561371 25.57897903 -12.43716492 24.75170807 -12.44906616 23.89936829 C-12.55648348 19.68028495 -12.74530078 16.17438687 -14.828125 12.38671875 C-18.74957598 10.42599326 -23.461815 10.78365602 -27.828125 10.38671875 C-27.828125 25.56671875 -27.828125 40.74671875 -27.828125 56.38671875 C-33.768125 56.38671875 -39.708125 56.38671875 -45.828125 56.38671875 C-45.828125 36.91671875 -45.828125 17.44671875 -45.828125 -2.61328125 C-32.01882008 -6.55879694 -11.96878388 -10.56219603 0 0 Z " fill="#003B70" transform="translate(395.828125,132.61328125)"/>
<path d="M0 0 C21.45 0 42.9 0 65 0 C65 5.28 65 10.56 65 16 C57.41 16 49.82 16 42 16 C42 36.79 42 57.58 42 79 C35.73 79 29.46 79 23 79 C23 58.21 23 37.42 23 16 C15.41 16 7.82 16 0 16 C0 10.72 0 5.44 0 0 Z " fill="#FF6939" transform="translate(647,110)"/>
<path d="M0 0 C5.94 0 11.88 0 18 0 C18 5.61 18 11.22 18 17 C24.6 17 31.2 17 38 17 C38 22.28 38 27.56 38 33 C31.4 33 24.8 33 18 33 C18.11421405 36.70895095 18.24096711 40.41675658 18.375 44.125 C18.4059375 45.17171875 18.436875 46.2184375 18.46875 47.296875 C18.50742187 48.31523437 18.54609375 49.33359375 18.5859375 50.3828125 C18.63306885 51.78104248 18.63306885 51.78104248 18.68115234 53.20751953 C18.97144723 56.602889 18.97144723 56.602889 21 62 C26.94 62 32.88 62 39 62 C41 71.5 41 71.5 41 76 C31.24490828 79.69944787 20.77491082 80.85980937 10.8671875 76.9765625 C5.79750346 74.32505411 3.01031646 70.2268228 1 65 C-0.08853699 57.61160743 -0.1303184 50.32886584 -0.09765625 42.87109375 C-0.0962413 41.64084976 -0.09482635 40.41060577 -0.09336853 39.14308167 C-0.08780285 35.24119563 -0.07525671 31.33936848 -0.0625 27.4375 C-0.05691266 24.7805998 -0.05291844 22.12370015 -0.04882812 19.46679688 C-0.03784466 12.97784214 -0.02060381 6.48893103 0 0 Z " fill="#003C70" transform="translate(412,111)"/>
<path d="M0 0 C-0.60108576 5.65020618 -2.07528683 10.66164461 -4 16 C-4.66386719 15.83628906 -5.32773437 15.67257813 -6.01171875 15.50390625 C-9.62883337 14.89396143 -13.15860708 14.89204487 -16.8125 14.9375 C-17.50537109 14.94201172 -18.19824219 14.94652344 -18.91210938 14.95117188 C-20.60811068 14.96286844 -22.30406703 14.98080076 -24 15 C-24.33 15.99 -24.66 16.98 -25 18 C-25.66 18 -26.32 18 -27 18 C-29.28528929 24.7130373 -30.35245555 31.2436634 -27.625 38 C-26.33110623 41.07338953 -26.33110623 41.07338953 -24 42 C-24 42.66 -24 43.32 -24 44 C-21.45826023 44.02716824 -18.91681585 44.04691969 -16.375 44.0625 C-15.30572266 44.07506836 -15.30572266 44.07506836 -14.21484375 44.08789062 C-10.02655562 44.10710296 -6.1271538 43.8267327 -2 43 C0.4021604 47.8043208 0.61122229 52.73103895 1 58 C-8.38749871 62.09636307 -20.15206043 62.77057191 -30.0625 59.875 C-37.28351383 56.85809673 -42.53057091 52.53303966 -46.03125 45.484375 C-50.26144853 34.63596265 -49.56899457 23.60659454 -45 13 C-40.11350014 4.23800025 -32.86745107 0.06023532 -23.5 -2.75 C-15.12587186 -3.58741281 -8.09701744 -2.30169024 0 0 Z " fill="#FF6A38" transform="translate(817,129)"/>
<path d="M0 0 C1.92392578 -0.00386719 1.92392578 -0.00386719 3.88671875 -0.0078125 C7.3125 0.125 7.3125 0.125 11.3125 1.125 C11.3125 6.405 11.3125 11.685 11.3125 17.125 C5.7025 16.795 0.0925 16.465 -5.6875 16.125 C-5.6875 31.305 -5.6875 46.485 -5.6875 62.125 C-11.6275 62.125 -17.5675 62.125 -23.6875 62.125 C-23.6875 42.985 -23.6875 23.845 -23.6875 4.125 C-15.14656335 1.27802112 -8.84293689 -0.01788258 0 0 Z " fill="#003B71" transform="translate(542.6875,126.875)"/>
<path d="M0 0 C12.87 0 25.74 0 39 0 C39 12.87 39 25.74 39 39 C32.07 39 25.14 39 18 39 C18 32.73 18 26.46 18 20 C12.06 20 6.12 20 0 20 C0 13.4 0 6.8 0 0 Z " fill="#FF6A39" transform="translate(185,83)"/>
<path d="M0 0 C6.27 0 12.54 0 19 0 C19 20.13 19 40.26 19 61 C12.73 61 6.46 61 0 61 C0 40.87 0 20.74 0 0 Z " fill="#003B71" transform="translate(563,128)"/>
<path d="M0 0 C8 0 8 0 10.13671875 1.50390625 C10.64847656 2.18324219 11.16023438 2.86257812 11.6875 3.5625 C12.24953125 4.28824219 12.8115625 5.01398438 13.390625 5.76171875 C13.92171875 6.50035156 14.4528125 7.23898438 15 8 C15.76570313 8.99966797 15.76570313 8.99966797 16.546875 10.01953125 C20 14.62693118 20 14.62693118 20 17 C20.66 17 21.32 17 22 17 C22.33 17.66 22.66 18.32 23 19 C23.33 12.73 23.66 6.46 24 0 C26.97 0 29.94 0 33 0 C33 12.54 33 25.08 33 38 C25 38 25 38 23.25317383 36.73413086 C22.90794678 36.15026611 22.56271973 35.56640137 22.20703125 34.96484375 C21.80419922 34.31966797 21.40136719 33.67449219 20.98632812 33.00976562 C20.59896484 32.32591797 20.21160156 31.64207031 19.8125 30.9375 C19.00766564 29.61257881 18.20167876 28.28835703 17.39453125 26.96484375 C16.88176636 26.07720337 16.88176636 26.07720337 16.35864258 25.17163086 C14.38556867 22.01790357 12.16225424 19.02715594 10 16 C9.67 23.26 9.34 30.52 9 38 C6.03 38 3.06 38 0 38 C0 25.46 0 12.92 0 0 Z " fill="#003C70" transform="translate(315,220)"/>
<path d="M0 0 C3.196875 -0.061875 6.39375 -0.12375 9.6875 -0.1875 C11.18543091 -0.22846802 11.18543091 -0.22846802 12.71362305 -0.27026367 C17.6083792 -0.31612889 21.10462817 -0.31441772 25 3 C27.768691 5.91409272 28.43134422 7.9424008 28.4375 11.9375 C28.33510797 15.58588983 28.06018512 16.89969146 26.125 20.125 C24 22 24 22 22 22 C22.48210937 22.73605469 22.96421875 23.47210938 23.4609375 24.23046875 C24.09257812 25.20628906 24.72421875 26.18210938 25.375 27.1875 C26.00148438 28.15042969 26.62796875 29.11335938 27.2734375 30.10546875 C28.81988312 32.69803936 29.97508075 35.16853116 31 38 C27.46069051 38.70501336 24.50906272 38.93847026 21 38 C17.22059326 33.95063563 14.74510184 29.23530553 13 24 C11.35 24 9.7 24 8 24 C8 28.62 8 33.24 8 38 C5.36 38 2.72 38 0 38 C0 25.46 0 12.92 0 0 Z M8 7 C8 10.3 8 13.6 8 17 C13.71337373 17.59236584 13.71337373 17.59236584 18.5 15 C18.995 14.34 19.49 13.68 20 13 C18.88145414 9.27385847 18.88145414 9.27385847 16 7 C14.62657169 6.9310528 13.24997898 6.91532292 11.875 6.9375 C9.956875 6.9684375 9.956875 6.9684375 8 7 Z " fill="#003B70" transform="translate(472,220)"/>
<path d="M0 0 C2.97 0 5.94 0 9 0 C9.01981934 0.83772949 9.03963867 1.67545898 9.06005859 2.53857422 C9.13810612 5.64365834 9.22479635 8.74834539 9.31738281 11.85302734 C9.37454036 13.85886971 9.42168596 15.86498918 9.46875 17.87109375 C9.50742187 19.12792969 9.54609375 20.38476562 9.5859375 21.6796875 C9.6173584 22.84226074 9.6487793 24.00483398 9.68115234 25.20263672 C9.72157869 28.13656482 9.72157869 28.13656482 12 30 C15.5 30.33333333 15.5 30.33333333 19 30 C21.75439516 27.24560484 21.30989276 25.53396797 21.4140625 21.6796875 C21.45273437 20.42285156 21.49140625 19.16601562 21.53125 17.87109375 C21.5621875 16.55238281 21.593125 15.23367187 21.625 13.875 C21.66318029 12.53513082 21.70223206 11.19528617 21.7421875 9.85546875 C21.8367203 6.57045381 21.92227156 3.28544862 22 0 C24.97 0 27.94 0 31 0 C31.08755672 4.35403865 31.14057969 8.70784877 31.1875 13.0625 C31.21263672 14.29162109 31.23777344 15.52074219 31.26367188 16.78710938 C31.32328759 24.15958673 31.29088105 29.85062824 26.5625 35.8125 C21.39250061 39.74169954 16.28053686 39.58254255 10 39 C6.18424567 37.70536907 4.57849067 36.77797021 2.1875 33.5625 C0.15255095 29.17129415 -0.12047939 25.54163058 -0.09765625 20.703125 C-0.09443359 19.49785156 -0.09121094 18.29257813 -0.08789062 17.05078125 C-0.07951172 15.79652344 -0.07113281 14.54226562 -0.0625 13.25 C-0.05798828 11.98027344 -0.05347656 10.71054688 -0.04882812 9.40234375 C-0.03704556 6.26818164 -0.02059416 3.13411459 0 0 Z " fill="#003B70" transform="translate(269,220)"/>
<path d="M0 0 C8.58 0 17.16 0 26 0 C26 2.31 26 4.62 26 7 C20.39 7 14.78 7 9 7 C9 9.31 9 11.62 9 14 C13.62 14 18.24 14 23 14 C23 16.64 23 19.28 23 22 C18.38 22 13.76 22 9 22 C9 24.97 9 27.94 9 31 C14.94 31 20.88 31 27 31 C27 33.31 27 35.62 27 38 C18.09 38 9.18 38 0 38 C0 25.46 0 12.92 0 0 Z " fill="#003C70" transform="translate(432,220)"/>
<path d="M0 0 C0.9178125 -0.00515625 1.835625 -0.0103125 2.78125 -0.015625 C5.71391503 0.27089974 7.86915881 0.9345794 10.5 2.25 C10.83 2.91 11.16 3.57 11.5 4.25 C10.84 5.9 10.18 7.55 9.5 9.25 C5.21 9.25 0.92 9.25 -3.5 9.25 C-3.83 10.9 -4.16 12.55 -4.5 14.25 C-3.91992188 14.42015625 -3.33984375 14.5903125 -2.7421875 14.765625 C3.474135 16.69412109 8.75502934 18.63254401 12.5 24.25 C13.22022276 28.72208083 13.08211165 32.23669453 10.8125 36.1875 C5.8372869 40.62485223 0.79508867 40.60634522 -5.60546875 40.51953125 C-9.29384586 40.17607913 -11.44639753 39.28573498 -14.5 37.25 C-14.005 34.28 -14.005 34.28 -13.5 31.25 C-9.67062532 29.97354177 -7.55424303 30.84614402 -3.75390625 31.875 C-1.32623575 32.27891052 0.18255591 32.01016389 2.5 31.25 C2.83 29.6 3.16 27.95 3.5 26.25 C2.860625 26.0025 2.22125 25.755 1.5625 25.5 C0.551875 25.0875 -0.45875 24.675 -1.5 24.25 C-2.60408203 23.81300781 -2.60408203 23.81300781 -3.73046875 23.3671875 C-4.52066406 23.03976563 -5.31085937 22.71234375 -6.125 22.375 C-6.88039063 22.06820312 -7.63578125 21.76140625 -8.4140625 21.4453125 C-10.93011607 20.00352899 -12.06855184 18.77078921 -13.5 16.25 C-13.828125 13.7421875 -13.828125 13.7421875 -13.75 11.125 C-13.73453125 10.25617188 -13.7190625 9.38734375 -13.703125 8.4921875 C-13.5 6.25 -13.5 6.25 -12.5 4.25 C-11.84 4.25 -11.18 4.25 -10.5 4.25 C-10.5 3.59 -10.5 2.93 -10.5 2.25 C-6.85883 0.58772674 -3.99709631 -0.0224556 0 0 Z " fill="#003A72" transform="translate(526.5,218.75)"/>
<path d="M0 0 C3.3 0 6.6 0 10 0 C10.391875 1.4025 10.78375 2.805 11.1875 4.25 C12.74500766 9.47398503 14.76118293 14.42977971 16.9140625 19.43359375 C18 22 18 22 19 25 C22.59883451 16.81412643 25.5198846 8.59034383 28 0 C30.97 0 33.94 0 37 0 C36.4227399 6.20554606 34.50902788 11.52789368 32.25 17.3125 C31.74726563 18.6418457 31.74726563 18.6418457 31.234375 19.99804688 C28.84750832 26.19576321 26.06899965 32.11193216 23 38 C20.36 38 17.72 38 15 38 C11.45358589 30.64736122 8.21482695 23.22820728 5.25 15.625 C4.95665771 14.87686035 4.66331543 14.1287207 4.36108398 13.35791016 C2.66348989 8.95289123 1.22692448 4.55886645 0 0 Z " fill="#003B70" transform="translate(383,220)"/>
<path d="M0 0 C3.3 0 6.6 0 10 0 C11.98 4.29 13.96 8.58 16 13 C16.66 13 17.32 13 18 13 C20.31 8.71 22.62 4.42 25 0 C27.97 0 30.94 0 34 0 C32.76397093 4.52739789 30.85589837 7.94162569 28.31787109 11.81274414 C22.56156012 20.67322777 20.47535447 27.39907406 21 38 C18.36 38 15.72 38 13 38 C13.03222656 37.07960938 13.06445312 36.15921875 13.09765625 35.2109375 C13.00925025 25.56486093 10.89923041 19.8797643 5.2265625 12.12109375 C0 4.79473684 0 4.79473684 0 0 Z " fill="#003B71" transform="translate(613,220)"/>
<path d="M0 0 C9.9 0 19.8 0 30 0 C30 2.31 30 4.62 30 7 C26.37 7 22.74 7 19 7 C19 17.23 19 27.46 19 38 C16.36 38 13.72 38 11 38 C11 27.77 11 17.54 11 7 C7.37 7 3.74 7 0 7 C0 4.69 0 2.38 0 0 Z " fill="#003C71" transform="translate(573,220)"/>
<path d="M0 0 C2.78901573 1.23956255 4.44350587 2.28450754 6.3125 4.6875 C7.57029856 8.91827698 7.6188837 13.19095535 6.1875 17.375 C5 19 5 19 2 21 C-3.22210998 21.76795735 -7.59026539 21.82925566 -12.1875 19.125 C-14.73686776 14.72953835 -15.04322442 10.96346618 -14 6 C-9.77546995 0.55257968 -6.76988121 -0.458975 0 0 Z " fill="#003B71" transform="translate(576,101)"/>
<path d="M0 0 C2.64 0 5.28 0 8 0 C8 12.54 8 25.08 8 38 C5.36 38 2.72 38 0 38 C0 25.46 0 12.92 0 0 Z " fill="#003C70" transform="translate(552,220)"/>
<path d="M0 0 C2.64 0 5.28 0 8 0 C8 12.54 8 25.08 8 38 C5.36 38 2.72 38 0 38 C0 25.46 0 12.92 0 0 Z " fill="#003B71" transform="translate(364,220)"/>
</svg>
