<?xml version="1.0" encoding="UTF-8"?>
<svg version="1.1" xmlns="http://www.w3.org/2000/svg" width="217" height="217">
<path d="M0 0 C71.61 0 143.22 0 217 0 C217 71.61 217 143.22 217 217 C145.39 217 73.78 217 0 217 C0 145.39 0 73.78 0 0 Z " fill="#FEFEFE" transform="translate(0,0)"/>
<path d="M0 0 C27.39 0 54.78 0 83 0 C83 6.27 83 12.54 83 19 C61.88 19 40.76 19 19 19 C19 27.91 19 36.82 19 46 C22.63 46.33 26.26 46.66 30 47 C56.05866592 51.86262187 78.84805311 66.07219811 94.0546875 87.95703125 C102.75233544 101.52864416 108.45367579 115.91822817 110 132 C110.66 132 111.32 132 112 132 C112.81086829 130.5732432 113.59736654 129.13263964 114.375 127.6875 C115.03628906 126.48673828 115.03628906 126.48673828 115.7109375 125.26171875 C119.17171818 116.50489492 119.32032789 107.19628179 119.4140625 97.89453125 C119.43342865 96.6893132 119.4527948 95.48409515 119.4727478 94.24235535 C119.53202717 90.43247319 119.57872104 86.62255997 119.625 82.8125 C119.66322735 80.21287821 119.70228177 77.61326844 119.7421875 75.01367188 C119.83768582 68.6758801 119.92190558 62.33802914 120 56 C126.27 56 132.54 56 139 56 C139.1140788 63.39897538 139.20532405 70.79745056 139.25906086 78.19712734 C139.28488399 81.63509366 139.31976258 85.07241471 139.37719727 88.51000977 C139.80440939 114.78433762 136.816853 136.15846689 118 156 C103.5853635 169.85271 85.52282147 175.48981301 65.99609375 175.20703125 C48.87116562 174.67524171 34.68931261 168.43407486 22 157 C21.04867187 156.17048828 21.04867187 156.17048828 20.078125 155.32421875 C9.42150275 145.44562423 1.08458296 129.65921086 -0.2679348 115.11971474 C-0.3654912 112.04863761 -0.37172654 108.99164516 -0.34057617 105.91918945 C-0.34101425 104.76666183 -0.34145233 103.61413422 -0.34190369 102.42668152 C-0.33983048 98.65536966 -0.31656854 94.88451448 -0.29296875 91.11328125 C-0.28736759 88.48341617 -0.28309995 85.85354793 -0.28010559 83.22367859 C-0.27082639 77.03325655 -0.24626934 70.84299576 -0.21605712 64.65264434 C-0.17907283 56.90452835 -0.16277774 49.15638551 -0.14648438 41.40820312 C-0.11736854 27.60534353 -0.05725558 13.80283517 0 0 Z " fill="#033B73" transform="translate(40,25)"/>
<path d="M0 0 C18.73641266 -0.16949171 36.01222206 8.80111197 49.25 21.6875 C63.94119883 36.58691682 70.15754885 54.6320428 70.125 75.1875 C70.0999743 78.45871644 70.05921184 81.7292288 70 85 C58.78614835 89.95997285 45.07065495 91.35639698 33.30078125 87.046875 C18.10767474 80.13388257 8.75026052 70.93193968 1.91015625 55.60546875 C-0.32201851 49.21550926 -0.13224081 42.81414526 -0.09765625 36.1328125 C-0.0962413 35.09808807 -0.09482635 34.06336365 -0.09336853 32.99728394 C-0.08779039 29.70649268 -0.07524188 26.41577054 -0.0625 23.125 C-0.05748218 20.88802182 -0.05291976 18.65104257 -0.04882812 16.4140625 C-0.03782812 10.94268492 -0.02111177 5.4713474 0 0 Z " fill="#FDFDFE" transform="translate(59,92)"/>
<path d="M0 0 C0.33 0 0.66 0 1 0 C1 8.91 1 17.82 1 27 C4.63 27.33 8.26 27.66 12 28 C38.05866592 32.86262187 60.84805311 47.07219811 76.0546875 68.95703125 C84.0379033 81.41386043 89.98383866 94.87439445 91.5625 109.6875 C91.7790625 111.3271875 91.7790625 111.3271875 92 113 C92.66 113.33 93.32 113.66 94 114 C94 114.66 94 115.32 94 116 C93.34 116 92.68 116 92 116 C91.73058594 116.59167969 91.46117187 117.18335938 91.18359375 117.79296875 C87.24567422 125.13595402 79.25982876 130.33998683 72 134 C71.34 133.67 70.68 133.34 70 133 C70.01571045 132.43716309 70.0314209 131.87432617 70.04760742 131.29443359 C70.58130834 109.19426149 67.30147517 89.88098229 52 73 C51.36964844 72.26652344 50.73929688 71.53304687 50.08984375 70.77734375 C36.779776 56.2731017 19.94584918 51.34338515 1 48 C1 62.85 1 77.7 1 93 C0.67 93 0.34 93 0 93 C0 62.31 0 31.62 0 0 Z " fill="#077ACA" transform="translate(58,44)"/>
<path d="M0 0 C12.54 0 25.08 0 38 0 C38 12.54 38 25.08 38 38 C31.73 38 25.46 38 19 38 C19 31.73 19 25.46 19 19 C12.73 19 6.46 19 0 19 C0 12.73 0 6.46 0 0 Z " fill="#FF6E3B" transform="translate(141,25)"/>
</svg>
